<svg xmlns="http://www.w3.org/2000/svg" width="1200" height="800" viewBox="0 0 1200 800"><rect width="1200" height="800" fill="#070707"/><g stroke="#f4f2ec" stroke-opacity="0.06" stroke-width="1"><line x1="150" y1="0" x2="150" y2="800"/><line x1="300" y1="0" x2="300" y2="800"/><line x1="450" y1="0" x2="450" y2="800"/><line x1="600" y1="0" x2="600" y2="800"/><line x1="750" y1="0" x2="750" y2="800"/><line x1="900" y1="0" x2="900" y2="800"/><line x1="1050" y1="0" x2="1050" y2="800"/></g><g fill="none" stroke="#f4f2ec" stroke-opacity="0.16" stroke-width="2"><path d="M56 87V56h31M1144 87V56h-31M56 713V744h31M1144 713V744h-31"/></g><circle cx="600" cy="312" r="36" fill="none" stroke="#0d9c80" stroke-width="2.5"/><path d="M586 312h29M600 298v29" stroke="#0d9c80" stroke-width="2.5" stroke-linecap="round"/><text x="600" y="424" text-anchor="middle" font-family="Helvetica,Arial,sans-serif" font-size="34" font-weight="600" letter-spacing="9" fill="#cfcdc6">SEO AND BLOGS</text><text x="600" y="468" text-anchor="middle" font-family="Helvetica,Arial,sans-serif" font-size="22" fill="#6b6a64">Blog or search results screenshot to add</text></svg>
